' Generated by UML Generator
' Encoded: xLfPR-Cu4dxthn0oB-ff9qZFFkp2c0t6ERhZwSq1MyayB1ODMg9jJcHHGr4vTdRwjs_na7Y8ifsaiy02Wm21JHRh-5YiAXRzKyKHu_Kw7rHtf2WHG-iepL5LZJbdP5vpF4bfCIF_nj7XO4Ko7AM4fJaU32HLT8wABCUd-9waU5ppLVJx88hU_mvSEKd_Y10CuG8-8gw9ufG_ZgAJ5IeAdAlLx8GM73_oOSJmRwFeOvtdvvoNK_nRZIl-RXJTKv8D_cX5ohcgf4M5RpZ9fSZzLkJ5-FhwR3gAhkQ_ufHVeBB4BFfxLE07PoX-9rRjEzfMkCZE6ADievA2kgv6ZXupEJQCrhYgq1AFeXcWLomRtNqXFrUqUB6CESsU6lE6KKhf7Ga8t7S4lh4mrxgR2hCfpWY3DHi4TpPsXjazPaABIK4uGJbu7PEx-ns10SqaJbSjmouBgSP7acCjIpa7evIFecl4L-scToXZGoHSuxjKYPXYb1s-s6b1MYhe2fuybJXUW3WjeW7Hw7w1IE7vydcIN7-vlfeceuWK7BpuRuU7XrsAoNN33KZsFlpmruD3-FkmrnhBwY8ExTOQHCQ8BQjc_J__rO5Kd6gnCt1sFUsIyITRhaMurprRTYGG3XBNyAzPFenA46NvrPpI7AF2SosU0BHYSHMqXbHYRWP7aD3Y5jm7t5uwx3dieH7MmvvKAa2zTFqIIzMcC2DjcsJM0Z5g85LSjQ0PfsmBiZPb05ejUP9zP7IjQIV5wJokrEVF-CbIHRkTpI2ZM4ANq3jSd3sIYilbN7pTOZNAiYjsKsPwLxLqoQX7XM7KGQUpas2HseokJRvIFURevQV6campt6AGMVmwD1ndCdX06afiHaEHc4wxgWKWAJ03lZESrapf5WU2o3Yz6nVP9KhlNfiMzmqhEMXKcTSaps1MvOYuIH_jo33Y4EoCXLvIb17JCLQamqkQMITaN18dWBUonzUJBzEhc-HiDeA0MVxOi8G5KmhLYbvrf4qxHzLAa1rPThMyxl1JlCPyHJEL-oxaP_1FHa8Ezcqo0fW8eHop1O9uwcajRVswabzUNoSv7gZgClyCcB5BjCQshMhq57D4yigQaEcCqVmNF9_Hz0xpALx22M5ml4_KJ3FGnYb7Z-un52HmRjgSOAQWtb3cjpY0vLHaK15EhKEIhd1wDra85lgy_b8rQdHZiNLmGMvJbNgIBEubeoaeFobIkWOEQi65ykcuzUtZ9uwFwuML-FKwZxvQ6d_lbhPodyTMgjnUJtCtd6m8Ss7FQ81I1qqjXoFZ7YzdHNEuOCCX5Z7G9t3CtZF95pRLrmWAJiLdvB9rjwOkUXcuX4HlDMOusq8AQQNN3JrbDFaupqMKjQ1maJ26iYTnIHB4SBmDr5FQfYyNQAWsrnsOBUfdWYpO1I6sMFO2x2xU0EycGWlS3fcbH2-mjkrzi9gpBgX5p9BdNGgq8nYG7_jERvKdxavigReQuZs7TbB0fo85YG6-3YLAERcNnL7bRtQEj-voRRWxejfi5X3lfMj0kz5Mu1ZMzxqk8fijVETBC_mQjv4Hsui-mV0SB97zSafMoDrgNfNXkzHU3A-fmhb3xWPPoz5KT9rwtYDW5MFN3qwYd3fUROAb1-Oe75xR8sk9ZwVUgVKrKIEM7d9dxmKca02kmPe7ojInj8bwSbpMNsOgyFhft7E-9QE7GwaQapUtRhsdV4tU7IiJ7pl81g9fYwlD8cwg2h6W4njP1sK9e4OpRBK2IB8Z_S28ULqpENQsCU_KBgjyadQd4XhKEm3qSKVyCsBmyxUnyJp1IqPU3445BWdWV46KmquP2idg93eHoAfN44TpLFctv9hbzcbinw54BU128qFcIVkvUsyMJQMu9qvTuWUpL10vZ1pINhfM_t_G9QZkLFwwMDPbuIcfIiGXjQahmFiveoXBKSKJEiwWwApY1PCEwrUEBkrLAQw8bEr8Valm0zwLM2Ji7aB7i52A_TfM6dUY3_3PAazkdJFqrIfA5AaxxHGZ8GAh26cdR_M4LN9y7juU6RrwIhUQavpm9tKhhBvTbxb4hC82Gz7QEARPKwnRXFObmeuBjhCb16uS7AtBEDpxM47ve8RZiXlG0WlWFicWH6bGwsbu-Mq67SSyjtLDrFVI9kw_-ZuhWwihqUp7zEhguilaCZcxJBx0tdJBwec4MDHRC7D05_6UJWzxiWKJZNMoU3UCzaomrvDJ4_t5l0wrUlAJ-WRXl6-pjKMAwjKuQ4qLv3iq2twjn45h74grtq8bPKTGOzZRIpBulgKi4wICG-pSSdcnROgHe80qqEdmUtSEHIm90utUbPbzpOk4IPJYBdK2iLIq510K9AwH_Qq3aP3jdjNkhJ6TGjhsqKVntT9DcPW0xKOslUzici4nAH1SX3QncDUBGDT6knw3GuQp7HwlO0L-J74f4lu9gfUhpNgd2Fnc52KhHX_GFCTzJJlEC5h_YV1R82pFwf_ulXc-NXjOnJiHBJL3hmkYHxSsGd9yZ_CFXeV-z8dHkjHhJ_42rJctP-9FEPsZ_EmU69uzuhI6wlXWSZbBnfSdPuRl3s_4zo_Vdg-wffqqxUenfskIJl42IcAuY_temUbFsxr3RwFKdTbfxhom7Iz-0v3G80TzU5I9x5wVhRk6UkBrQHlsgZ6axrdWufiQ_0MzMhGFncu7iNqjsCYWmKEtHW3Ja_wN0cdubIRTO6hpr6niw8L2N_yAICUxt_vseMukVxlGYfjJcCwvebj7tlf1XeYqePaM0kc4uXLCrNvhMTzNiViAPw6pGx5chHr6mMwWUCdAQOMVy_iKK_iqwWRJzl_S5YUr_LyWQN9m1qdpi2Xcc4aVyll8ib55kFPxR8T7owj68Kzh0h0_OJEn51m5DjXcOOrR0LPeBIDvmiXoANiMcw36zxmRxPwFRGkWU4PyMOcpvVv0gbR6JRbaACDnpuhEzQ7zZTEklq6oVWX0z_Vz1_E1-yRzFL3uhz3Xjyw3W_yS-Qsg7b8Xrcs4XjxqWWn3X8ATtOeDFKi9EqBFD3lGsZBbNFWnmgOwE3Zo37IwyT-x2dlAQ2B1eskLDHaIeCJlxmDoDlt0Q_GqYAaB-w1fVqZ4W-D73Y1j5yDVO4suAwnkXB_6cJhg0Azx2lwKNn9BhdqTu84V0PiTbb-3izquje7CYbM3dw1WgTVvVm4
' URL: http://www.plantuml.com/plantuml/uml/xLfPR-Cu4dxthn0oB-ff9qZFFkp2c0t6ERhZwSq1MyayB1ODMg9jJcHHGr4vTdRwjs_na7Y8ifsaiy02Wm21JHRh-5YiAXRzKyKHu_Kw7rHtf2WHG-iepL5LZJbdP5vpF4bfCIF_nj7XO4Ko7AM4fJaU32HLT8wABCUd-9waU5ppLVJx88hU_mvSEKd_Y10CuG8-8gw9ufG_ZgAJ5IeAdAlLx8GM73_oOSJmRwFeOvtdvvoNK_nRZIl-RXJTKv8D_cX5ohcgf4M5RpZ9fSZzLkJ5-FhwR3gAhkQ_ufHVeBB4BFfxLE07PoX-9rRjEzfMkCZE6ADievA2kgv6ZXupEJQCrhYgq1AFeXcWLomRtNqXFrUqUB6CESsU6lE6KKhf7Ga8t7S4lh4mrxgR2hCfpWY3DHi4TpPsXjazPaABIK4uGJbu7PEx-ns10SqaJbSjmouBgSP7acCjIpa7evIFecl4L-scToXZGoHSuxjKYPXYb1s-s6b1MYhe2fuybJXUW3WjeW7Hw7w1IE7vydcIN7-vlfeceuWK7BpuRuU7XrsAoNN33KZsFlpmruD3-FkmrnhBwY8ExTOQHCQ8BQjc_J__rO5Kd6gnCt1sFUsIyITRhaMurprRTYGG3XBNyAzPFenA46NvrPpI7AF2SosU0BHYSHMqXbHYRWP7aD3Y5jm7t5uwx3dieH7MmvvKAa2zTFqIIzMcC2DjcsJM0Z5g85LSjQ0PfsmBiZPb05ejUP9zP7IjQIV5wJokrEVF-CbIHRkTpI2ZM4ANq3jSd3sIYilbN7pTOZNAiYjsKsPwLxLqoQX7XM7KGQUpas2HseokJRvIFURevQV6campt6AGMVmwD1ndCdX06afiHaEHc4wxgWKWAJ03lZESrapf5WU2o3Yz6nVP9KhlNfiMzmqhEMXKcTSaps1MvOYuIH_jo33Y4EoCXLvIb17JCLQamqkQMITaN18dWBUonzUJBzEhc-HiDeA0MVxOi8G5KmhLYbvrf4qxHzLAa1rPThMyxl1JlCPyHJEL-oxaP_1FHa8Ezcqo0fW8eHop1O9uwcajRVswabzUNoSv7gZgClyCcB5BjCQshMhq57D4yigQaEcCqVmNF9_Hz0xpALx22M5ml4_KJ3FGnYb7Z-un52HmRjgSOAQWtb3cjpY0vLHaK15EhKEIhd1wDra85lgy_b8rQdHZiNLmGMvJbNgIBEubeoaeFobIkWOEQi65ykcuzUtZ9uwFwuML-FKwZxvQ6d_lbhPodyTMgjnUJtCtd6m8Ss7FQ81I1qqjXoFZ7YzdHNEuOCCX5Z7G9t3CtZF95pRLrmWAJiLdvB9rjwOkUXcuX4HlDMOusq8AQQNN3JrbDFaupqMKjQ1maJ26iYTnIHB4SBmDr5FQfYyNQAWsrnsOBUfdWYpO1I6sMFO2x2xU0EycGWlS3fcbH2-mjkrzi9gpBgX5p9BdNGgq8nYG7_jERvKdxavigReQuZs7TbB0fo85YG6-3YLAERcNnL7bRtQEj-voRRWxejfi5X3lfMj0kz5Mu1ZMzxqk8fijVETBC_mQjv4Hsui-mV0SB97zSafMoDrgNfNXkzHU3A-fmhb3xWPPoz5KT9rwtYDW5MFN3qwYd3fUROAb1-Oe75xR8sk9ZwVUgVKrKIEM7d9dxmKca02kmPe7ojInj8bwSbpMNsOgyFhft7E-9QE7GwaQapUtRhsdV4tU7IiJ7pl81g9fYwlD8cwg2h6W4njP1sK9e4OpRBK2IB8Z_S28ULqpENQsCU_KBgjyadQd4XhKEm3qSKVyCsBmyxUnyJp1IqPU3445BWdWV46KmquP2idg93eHoAfN44TpLFctv9hbzcbinw54BU128qFcIVkvUsyMJQMu9qvTuWUpL10vZ1pINhfM_t_G9QZkLFwwMDPbuIcfIiGXjQahmFiveoXBKSKJEiwWwApY1PCEwrUEBkrLAQw8bEr8Valm0zwLM2Ji7aB7i52A_TfM6dUY3_3PAazkdJFqrIfA5AaxxHGZ8GAh26cdR_M4LN9y7juU6RrwIhUQavpm9tKhhBvTbxb4hC82Gz7QEARPKwnRXFObmeuBjhCb16uS7AtBEDpxM47ve8RZiXlG0WlWFicWH6bGwsbu-Mq67SSyjtLDrFVI9kw_-ZuhWwihqUp7zEhguilaCZcxJBx0tdJBwec4MDHRC7D05_6UJWzxiWKJZNMoU3UCzaomrvDJ4_t5l0wrUlAJ-WRXl6-pjKMAwjKuQ4qLv3iq2twjn45h74grtq8bPKTGOzZRIpBulgKi4wICG-pSSdcnROgHe80qqEdmUtSEHIm90utUbPbzpOk4IPJYBdK2iLIq510K9AwH_Qq3aP3jdjNkhJ6TGjhsqKVntT9DcPW0xKOslUzici4nAH1SX3QncDUBGDT6knw3GuQp7HwlO0L-J74f4lu9gfUhpNgd2Fnc52KhHX_GFCTzJJlEC5h_YV1R82pFwf_ulXc-NXjOnJiHBJL3hmkYHxSsGd9yZ_CFXeV-z8dHkjHhJ_42rJctP-9FEPsZ_EmU69uzuhI6wlXWSZbBnfSdPuRl3s_4zo_Vdg-wffqqxUenfskIJl42IcAuY_temUbFsxr3RwFKdTbfxhom7Iz-0v3G80TzU5I9x5wVhRk6UkBrQHlsgZ6axrdWufiQ_0MzMhGFncu7iNqjsCYWmKEtHW3Ja_wN0cdubIRTO6hpr6niw8L2N_yAICUxt_vseMukVxlGYfjJcCwvebj7tlf1XeYqePaM0kc4uXLCrNvhMTzNiViAPw6pGx5chHr6mMwWUCdAQOMVy_iKK_iqwWRJzl_S5YUr_LyWQN9m1qdpi2Xcc4aVyll8ib55kFPxR8T7owj68Kzh0h0_OJEn51m5DjXcOOrR0LPeBIDvmiXoANiMcw36zxmRxPwFRGkWU4PyMOcpvVv0gbR6JRbaACDnpuhEzQ7zZTEklq6oVWX0z_Vz1_E1-yRzFL3uhz3Xjyw3W_yS-Qsg7b8Xrcs4XjxqWWn3X8ATtOeDFKi9EqBFD3lGsZBbNFWnmgOwE3Zo37IwyT-x2dlAQ2B1eskLDHaIeCJlxmDoDlt0Q_GqYAaB-w1fVqZ4W-D73Y1j5yDVO4suAwnkXB_6cJhg0Azx2lwKNn9BhdqTu84V0PiTbb-3izquje7CYbM3dw1WgTVvVm4
' Generated on: 2026-03-05T23:00:48.667063800

@startuml
skinparam classAttributeIconSize 0
hide circle

class HandleDeviceAuth {
  +{static} authenticateDevice(ctx: ChannelHandlerContext, req: FullHttpRequest): void
}

class HttpResponseUtil {
  -{static} MAPPER: ObjectMapper = new ObjectMapper()
  --
  +{static} sendError(ctx: ChannelHandlerContext, status: HttpResponseStatus, message: String): void
  +{static} sendJson(ctx: ChannelHandlerContext, status: HttpResponseStatus, body: Object, cookie: String): void
  -{static} send(ctx: ChannelHandlerContext, status: HttpResponseStatus, body: Object, cookie: String): void
  +{static} sendUserRedirect(ctx: ChannelHandlerContext): void
}

class ServerHttpInitializer {
  #initChannel(ch: Channel): void
}

class StaticFileHandler {
  -root: Path
  --
  +StaticFileHandler(root: Path)
  #channelRead0(ctx: ChannelHandlerContext, req: FullHttpRequest): void
  -contentType(file: Path): String
}

class Main {
  -{static} HTTP_PORT: int = 8000
  -{static} HTTP_IP: String = "127.0.0.1"
  --
  +run(): void
  +{static} main(args: String[]): void
}

class AuthService {
  -{static} TAG: String = "AuthService"
  --
  +{static} authenticateUser(user: String, pass: String): boolean
  +{static} setTestUsers(): void
  +{static} isUserSessionValid(cookieHeader: String): boolean
  +{static} isDeviceSessionValid(cookieHeader: String): boolean
  +{static} getUserRole(userId: String): Role
}

class cookieSessionStore {
  -{static} TAG: String = "SessionStore"
  --
  +{static} getUserIdFromSessionInDb(sessionKey: String): String
  +{static} doesUserTokenExistInDb(token: String): boolean
  +{static} addOrUpdateUserSessionTokenInDb(sessionKey: String, userId: String): void
  +{static} getDeviceIdFromSessionInDb(token: String): String
  +{static} doesDeviceIDExistInDb(deviceId: String): boolean
  +{static} doesDeviceTokenExistInDb(token: String): boolean
  +{static} addOrUpdateDeviceSessionTokenInDb(newToken: String, newDeviceId: String): void
  +{static} generateSecureToken(): String
}

class AckAndNack {
  -{static} MAPPER: ObjectMapper = new ObjectMapper()
  --
  -AckAndNack()
  +{static} buildAckStatus(status: AckStatus, type: String, message: String, reqId: String): JsonNode
}

class ApiHandler {
  -{static} API_ROUTES: Map<String, ApiRouteHandler> = new HashMap<>()
  --
  -{static} key(method: HttpMethod, uri: String): String
  #channelRead0(ctx: ChannelHandlerContext, req: FullHttpRequest): void
}

interface ApiRouteHandler {
  ~handle(ctx: ChannelHandlerContext, req: FullHttpRequest): void
}

class DeviceSession {
  +deviceId: String
  +deviceName: String
  #deviceDetails: String
  -controlWebSocketRegistry: ControlRegistry
  --
  +DeviceSession(deviceId: String)
  +addUser(userId: String, channel: Channel, role: Role): void
  +checkIfUserExistInWsRegistry(userId: String): boolean
  +addDevice(channel: Channel): void
  +processIncomingDeviceMessage(message: ByteBuf): void
  -processDeviceMessage(msg: JsonNode): void
}

class HandleAuthenticate {
  +{static} authenticateDevice(token: String, deviceId: String): boolean
}

class DeviceSessionRegistry {
  -deviceMap: Map<String, DeviceSession> = new ConcurrentHashMap<>()
  --
  +register(deviceId: String, session: DeviceSession): boolean
  +unregister(deviceId: String): boolean
  +isRegistered(deviceId: String): boolean
  +getSession(deviceId: String): DeviceSession
  +getAll(): Map<String,DeviceSession>
  +registrySize(): int
}

class RoomSessionRegistry {
  -roomMap: Map<String, RoomSession> = new ConcurrentHashMap<>()
  --
  +register(roomId: String, session: RoomSession): boolean
  +unregister(roomId: String): boolean
  +isRegistered(roomId: String): boolean
  +getSession(roomId: String): RoomSession
  +getAll(): Map<String,RoomSession>
  +registrySize(): int
  +checkIfRoomNameExist(roomName: String): Boolean
}

class UserSessionRegistry {
  -{static} TAG: String = "SessionRegistry"
  -{static} Instance: UserSessionRegistry
  -{static} activeUsers: Map<String, Role> = new ConcurrentHashMap<>()
  -userSession: UserSession
  --
  -UserSessionRegistry()
  +{static} getInstance(): UserSessionRegistry
  +getUserSession(): UserSession
  +{static} registerUser(token: String, role: Role): void
  +{static} getUserRole(token: String): Role
  +{static} isUserValid(token: String): boolean
  +{static} removeUser(token: String): void
}

class RoomSession {
  +RoomName: String
  -RoomPwd: String
  +RoomId: String
  -deviceSessionRegistry: DeviceSessionRegistry
  --
  +RoomSession(RoomId: String, RoomName: String, RoomPwd: String)
  +validatePassword(roomPwd: String): boolean
  +addDevice(deviceId: String): void
  +removeDevice(deviceId: String): boolean
  +getDeviceSession(deviceId: String): DeviceSession
  +getDevices(): JsonNode
}

class UserServices {
  -roomSessionRegistry: RoomSessionRegistry
  --
  +UserServices()
  +addRoom(roomId: String, roomName: String, roomPassword: String): boolean
  +removeRoom(id: String): boolean
  +getRoomDetails(): JsonNode
  +getAllDeviceDetails(): JsonNode
  +addDeviceToRoom(roomId: String, deviceId: String): Boolean
  +getRoomSession(roomId: String): RoomSession
  +getDeviceSession(deviceId: String): DeviceSession
  +validateRoomExistenceAndPwd(roomId: String, roomPwd: String): boolean
}

class UserSession {
  +UserSession()
}

class Database {
  -{static} url: String
  -{static} connection: Connection
  --
  +{static} init(): void
  +{static} getNewConnection(): Connection
  +{static} getConnection(): Connection
}

class Log {
}

interface ControlMessageDispatcher {
  +broadcastToAdmins(frame: JsonNode): void
  +broadcastToOperators(frame: JsonNode): void
  +broadcastToViewers(frame: JsonNode): void
  +broadcastToAll(frame: JsonNode): void
}

interface SessionRegistry {
  ~register(key: K, session: V): boolean
  ~unregister(key: K): boolean
  ~isRegistered(key: K): boolean
  ~getSession(key: K): V
  ~getAll(): Map<K,V>
  ~registrySize(): int
}

class utilityMethods {
  -{static} MAPPER: ObjectMapper = new ObjectMapper()
  --
  +{static} parseJsonFromBody(content: ByteBuf): JsonNode
  +{static} getTimestamp(): String
  +{static} hashString(password: String): String
  +{static} extractSession(cookieHeader: String): String
}

class DeviceDispatcher {
  +{static} parseRequestDevices(ctx: ChannelHandlerContext, req: FullHttpRequest): void
}

class RoomDispatcher {
  -{static} ROOM_INTENT_MAP: Map<String, RoomIntent> = Map.of("addRoom", new AddRoom(), "removeRoom", new RemoveRoom(), "getRoom", new GetRooms())
  --
  +{static} parseRequestRooms(ctx: ChannelHandlerContext, req: FullHttpRequest): void
}

class AddRoom {
  +handle(ctx: ChannelHandlerContext, json: JsonNode, userSession: UserSession): void
}

class GetRooms {
  +handle(ctx: ChannelHandlerContext, json: JsonNode, userSession: UserSession): void
}

class RemoveRoom {
  +handle(ctx: ChannelHandlerContext, json: JsonNode, userSession: UserSession): void
}

interface RoomIntent {
  ~handle(ctx: ChannelHandlerContext, json: JsonNode, userSession: UserSession): void
}

class HandleUserLogin {
  -{static} TAG: String = "HandleLogin"
  --
  +{static} handleLogin(ctx: ChannelHandlerContext, req: FullHttpRequest): void
  -{static} checkCredentials(json: JsonNode): boolean
}

class DeviceDataHandler {
  #channelRead0(ctx: ChannelHandlerContext, frame: WebSocketFrame): void
  -handleText(ctx: ChannelHandlerContext, message: String): void
  -handleBinary(ctx: ChannelHandlerContext, buf: ByteBuf): void
  +handlerAdded(ctx: ChannelHandlerContext): void
  +exceptionCaught(ctx: ChannelHandlerContext, cause: Throwable): void
}

class DeviceStreamHandler {
  #channelRead0(ctx: ChannelHandlerContext, frame: WebSocketFrame): void
  -handleText(ctx: ChannelHandlerContext, message: String): void
  -handleBinary(ctx: ChannelHandlerContext, buf: ByteBuf): void
  +handlerAdded(ctx: ChannelHandlerContext): void
  +exceptionCaught(ctx: ChannelHandlerContext, cause: Throwable): void
}

class UserStreamHandler {
  #channelRead0(ctx: ChannelHandlerContext, frame: WebSocketFrame): void
  -handleText(ctx: ChannelHandlerContext, message: String): void
  -handleBinary(ctx: ChannelHandlerContext, buf: ByteBuf): void
  +handlerAdded(ctx: ChannelHandlerContext): void
  +exceptionCaught(ctx: ChannelHandlerContext, cause: Throwable): void
}

class ControlRegistry {
  -userChannels: Map<String, Channel> = new ConcurrentHashMap<>()
  -level1Channels: ChannelGroup = new DefaultChannelGroup(GlobalEventExecutor.INSTANCE)
  -level2Channels: ChannelGroup = new DefaultChannelGroup(GlobalEventExecutor.INSTANCE)
  -level3Channels: ChannelGroup = new DefaultChannelGroup(GlobalEventExecutor.INSTANCE)
  -deviceChannel: AtomicReference<Channel> = new AtomicReference<>()
  --
  +ControlRegistry()
  +registerUser(userId: String, channel: Channel, role: Role): void
  +sendToUser(userId: String, frame: Object): boolean
  +broadcastToUsers(frame: Object): void
  +isUserConnected(userId: String): boolean
  +noOfUsers(): int
  +checkIfUserExist(userId: String): boolean
  +registerDevice(newChannel: Channel): void
  +sendTODevice(frame: Object): boolean
  +isDeviceConnected(): boolean
  +broadcastToAdmins(node: JsonNode): void
  +broadcastToOperators(node: JsonNode): void
  +broadcastToViewers(node: JsonNode): void
  +broadcastToAll(node: JsonNode): void
}

class DataRegistry {
}

class StreamRegistry {
}

class DeviceControlRoute {
  +matches(uri: String): boolean
  +handle(ctx: ChannelHandlerContext, uri: String, token: String): void
  -close(ctx: ChannelHandlerContext): void
}

class DeviceDataRoute {
}

class DeviceStreamRoute {
  +matches(uri: String): boolean
  +handle(ctx: ChannelHandlerContext, uri: String, token: String): void
}

class UserRoute {
  +matches(uri: String): boolean
  +handle(ctx: ChannelHandlerContext, uri: String, token: String): void
  -close(ctx: ChannelHandlerContext): void
}

class UserStreamRoute {
}

class WebSocketRouter {
  -userRoute: UserRoute = new UserRoute()
  -deviceControlRoute: DeviceControlRoute = new DeviceControlRoute()
  -deviceStreamRoute: DeviceStreamRoute = new DeviceStreamRoute()
  --
  +userEventTriggered(ctx: ChannelHandlerContext, evt: Object): void
  -close(ctx: ChannelHandlerContext): void
}

class WebSocketAuthHandler {
  #channelRead0(ctx: ChannelHandlerContext, req: FullHttpRequest): void
  -isWebSocketUpgrade(req: FullHttpRequest): boolean
}

class Main {
  +{static} main(args: String[]): void
}

ApiHandler o-- ApiRouteHandler
DeviceSession *-- ControlRegistry
DeviceSessionRegistry ..|> SessionRegistry
DeviceSessionRegistry o-- DeviceSession
RoomSessionRegistry ..|> SessionRegistry
RoomSessionRegistry o-- RoomSession
UserSessionRegistry *-- UserSessionRegistry
UserSessionRegistry *-- UserSession
RoomSession *-- DeviceSessionRegistry
RoomSession ..> DeviceSession
UserServices *-- RoomSessionRegistry
UserServices ..> RoomSession
UserServices ..> DeviceSession
UserSession --|> UserServices
RoomDispatcher o-- RoomIntent
AddRoom ..|> RoomIntent
AddRoom ..> UserSession
GetRooms ..|> RoomIntent
GetRooms ..> UserSession
RemoveRoom ..|> RoomIntent
RemoveRoom ..> UserSession
RoomIntent ..> UserSession
ControlRegistry ..|> ControlMessageDispatcher
WebSocketRouter *-- UserRoute
WebSocketRouter *-- DeviceControlRoute
WebSocketRouter *-- DeviceStreamRoute
@enduml